<svg width="260" height="103" viewBox="0 0 260 103" fill="none" xmlns="http://www.w3.org/2000/svg">
<g filter="url(#filter0_d_1_162)">
<path d="M56.266 88.12H63.706C65.434 88.12 66.906 87.864 68.122 87.352C69.37 86.84 70.394 86.04 71.194 84.952C72.09 83.832 72.746 82.36 73.162 80.536C73.61 78.712 73.834 76.536 73.834 74.008C73.834 69.016 72.954 65.304 71.194 62.872C70.362 61.656 69.29 60.76 67.978 60.184C66.666 59.608 65.082 59.32 63.226 59.32H56.266V88.12ZM47.434 56.44H63.562C68.33 56.44 72.042 57.784 74.698 60.472C76.202 62.008 77.354 63.896 78.154 66.136C78.954 68.376 79.354 70.776 79.354 73.336C79.354 76.024 78.922 78.552 78.058 80.92C77.226 83.256 76.058 85.224 74.554 86.824C71.898 89.608 68.09 91 63.13 91H47.434V88.936L51.466 87.928V59.512L47.434 58.504V56.44ZM105.016 78.328H88.264C88.264 80.664 88.584 82.6 89.224 84.136C89.864 85.608 90.776 86.664 91.96 87.304C93.144 87.944 94.424 88.264 95.8 88.264C97.304 88.264 98.68 87.96 99.928 87.352C101.176 86.712 102.296 85.848 103.288 84.76L104.824 85.912C103.704 87.448 102.344 88.76 100.744 89.848C99.144 90.936 97.08 91.48 94.552 91.48C92.344 91.48 90.392 91.016 88.696 90.088C87 89.128 85.704 87.736 84.808 85.912C84.328 84.92 83.976 83.816 83.752 82.6C83.528 81.384 83.416 80.088 83.416 78.712C83.416 74.232 84.44 70.76 86.488 68.296C88.568 65.832 91.384 64.6 94.936 64.6C98.2 64.6 100.712 65.624 102.472 67.672C104.264 69.688 105.16 72.488 105.16 76.072C105.16 76.392 105.144 76.696 105.112 76.984C105.112 77.24 105.08 77.688 105.016 78.328ZM94.648 67.192C90.808 67.192 88.696 70.12 88.312 75.976H100.312V74.392C100.312 72.088 99.816 70.312 98.824 69.064C97.864 67.816 96.472 67.192 94.648 67.192ZM133.189 77.8C133.189 79.88 132.885 81.848 132.277 83.704C131.669 85.56 130.821 87.112 129.733 88.36C127.941 90.44 125.365 91.48 122.005 91.48C120.373 91.48 118.917 91.112 117.637 90.376C116.357 89.608 115.221 88.2 114.229 86.152L112.789 91H110.533V56.44L106.837 55.528V53.56H115.189V67.864C116.149 66.648 117.221 65.8 118.405 65.32C119.589 64.84 120.917 64.6 122.389 64.6C124.021 64.6 125.493 64.84 126.805 65.32C128.149 65.8 129.237 66.568 130.069 67.624C131.061 68.84 131.829 70.328 132.373 72.088C132.917 73.848 133.189 75.752 133.189 77.8ZM115.189 77.848C115.189 79.8 115.333 81.496 115.621 82.936C115.909 84.376 116.325 85.544 116.869 86.44C117.381 87.24 118.005 87.864 118.741 88.312C119.509 88.76 120.485 88.984 121.669 88.984C122.757 88.984 123.701 88.792 124.501 88.408C125.333 87.992 126.005 87.432 126.517 86.728C127.093 85.896 127.509 84.744 127.765 83.272C128.021 81.8 128.149 80.104 128.149 78.184C128.149 76.264 128.005 74.584 127.717 73.144C127.429 71.704 127.013 70.536 126.469 69.64C125.957 68.808 125.317 68.184 124.549 67.768C123.813 67.32 122.837 67.096 121.621 67.096C120.533 67.096 119.573 67.288 118.741 67.672C117.941 68.024 117.317 68.568 116.869 69.304C116.357 70.2 115.941 71.368 115.621 72.808C115.333 74.216 115.189 75.896 115.189 77.848ZM140.081 67.96L136.385 67.048V65.08H144.737V88.12L148.433 89.032V91H136.385V89.032L140.081 88.12V67.96ZM139.409 57.352C139.409 56.424 139.681 55.688 140.225 55.144C140.769 54.6 141.489 54.328 142.385 54.328C143.313 54.328 144.049 54.6 144.593 55.144C145.137 55.688 145.409 56.424 145.409 57.352C145.409 58.248 145.137 58.968 144.593 59.512C144.049 60.056 143.313 60.328 142.385 60.328C141.457 60.328 140.721 60.072 140.177 59.56C139.665 59.016 139.409 58.28 139.409 57.352ZM171.547 80.104H169.099L168.283 75.208H160.267V87.784L165.883 88.696V91H150.955V88.936L155.467 87.784V59.512L150.955 58.504V56.44H177.979V66.712H175.387L173.851 59.224H160.267V72.328H168.283L169.099 67.432H171.547V80.104ZM179.62 85.384C179.62 82.888 180.788 80.92 183.124 79.48C185.46 78.04 189.332 76.92 194.74 76.12C194.612 74.232 194.436 72.76 194.212 71.704C193.988 70.648 193.7 69.8 193.348 69.16C192.9 68.328 192.276 67.72 191.476 67.336C190.676 66.92 189.812 66.712 188.884 66.712C187.988 66.712 187.172 66.872 186.436 67.192C185.732 67.512 185.252 67.944 184.996 68.488C185.444 68.808 185.764 69.224 185.956 69.736C186.18 70.248 186.292 70.728 186.292 71.176C186.292 71.976 186.02 72.616 185.476 73.096C184.964 73.544 184.324 73.768 183.556 73.768C182.788 73.768 182.148 73.512 181.636 73C181.156 72.488 180.916 71.768 180.916 70.84C180.916 69.496 181.38 68.36 182.308 67.432C183.236 66.504 184.404 65.8 185.812 65.32C187.252 64.84 188.692 64.6 190.132 64.6C191.444 64.6 192.644 64.808 193.732 65.224C194.852 65.608 195.796 66.184 196.564 66.952C198.548 68.936 199.54 72.456 199.54 77.512V84.472C199.54 86.04 199.636 87.128 199.828 87.736C200.052 88.344 200.516 88.648 201.22 88.648H203.38V90.088C201.076 91.016 199.284 91.48 198.004 91.48C197.012 91.48 196.34 91.128 195.988 90.424C195.668 89.688 195.508 88.296 195.508 86.248H195.316C194.324 87.88 193.012 89.16 191.38 90.088C189.748 91.016 187.988 91.48 186.1 91.48C184.084 91.48 182.5 90.936 181.348 89.848C180.196 88.76 179.62 87.272 179.62 85.384ZM188.116 88.696C189.012 88.696 189.94 88.472 190.9 88.024C191.892 87.544 192.724 86.888 193.396 86.056C193.908 85.416 194.276 84.664 194.5 83.8C194.756 82.904 194.884 81.864 194.884 80.68C194.884 80.136 194.868 79.608 194.836 79.096C194.804 78.552 194.756 78.04 194.692 77.56C192.1 78.072 190.068 78.632 188.596 79.24C187.124 79.816 186.084 80.52 185.476 81.352C184.868 82.152 184.564 83.16 184.564 84.376C184.564 85.752 184.868 86.824 185.476 87.592C186.116 88.328 186.996 88.696 188.116 88.696ZM217.353 64.6C219.209 64.6 220.809 64.92 222.153 65.56C223.529 66.168 224.585 67.032 225.321 68.152C226.089 69.272 226.473 70.584 226.473 72.088C226.473 73.272 226.217 74.184 225.705 74.824C225.225 75.464 224.489 75.784 223.497 75.784C222.601 75.784 221.881 75.528 221.337 75.016C220.825 74.504 220.569 73.816 220.569 72.952C220.569 72.152 220.777 71.464 221.193 70.888C221.641 70.312 222.233 69.912 222.969 69.688C222.489 68.76 221.801 68.088 220.905 67.672C220.041 67.256 218.953 67.048 217.641 67.048C215.017 67.048 213.097 67.912 211.881 69.64C210.697 71.336 210.105 73.992 210.105 77.608C210.105 79.176 210.201 80.536 210.393 81.688C210.617 82.808 210.937 83.768 211.353 84.568C211.993 85.752 212.841 86.664 213.897 87.304C214.953 87.944 216.201 88.264 217.641 88.264C219.113 88.264 220.521 87.944 221.865 87.304C223.209 86.664 224.361 85.752 225.321 84.568L226.761 85.72C225.481 87.672 224.009 89.128 222.345 90.088C220.681 91.016 218.729 91.48 216.489 91.48C214.249 91.48 212.297 91.032 210.633 90.136C209.001 89.208 207.721 87.864 206.793 86.104C205.641 83.96 205.065 81.368 205.065 78.328C205.065 75.544 205.561 73.128 206.553 71.08C207.577 69.032 209.017 67.448 210.873 66.328C212.729 65.176 214.889 64.6 217.353 64.6ZM233.295 67.96L229.599 67.048V65.08H237.951V88.12L241.647 89.032V91H229.599V89.032L233.295 88.12V67.96ZM232.623 57.352C232.623 56.424 232.895 55.688 233.439 55.144C233.983 54.6 234.703 54.328 235.599 54.328C236.527 54.328 237.263 54.6 237.807 55.144C238.351 55.688 238.623 56.424 238.623 57.352C238.623 58.248 238.351 58.968 237.807 59.512C237.263 60.056 236.527 60.328 235.599 60.328C234.671 60.328 233.935 60.072 233.391 59.56C232.879 59.016 232.623 58.28 232.623 57.352ZM247.144 88.12V56.44L243.448 55.528V53.56H251.8V88.12L255.496 89.032V91H243.448V89.032L247.144 88.12Z" fill="black"/>
<path d="M56.266 88.12H55.266V89.12H56.266V88.12ZM68.122 87.352L67.7424 86.4268L67.7339 86.4304L68.122 87.352ZM71.194 84.952L70.4131 84.3273L70.4004 84.3432L70.3883 84.3596L71.194 84.952ZM73.162 80.536L72.1909 80.2975L72.1889 80.3055L72.187 80.3136L73.162 80.536ZM71.194 62.872L70.3687 63.4367L70.3761 63.4476L70.3839 63.4583L71.194 62.872ZM67.978 60.184L67.576 61.0996L67.978 60.184ZM56.266 59.32V58.32H55.266V59.32H56.266ZM47.434 56.44V55.44H46.434V56.44H47.434ZM74.698 60.472L75.4125 59.7724L75.4093 59.7691L74.698 60.472ZM78.154 66.136L77.2123 66.4723L78.154 66.136ZM78.058 80.92L77.1185 80.5772L77.116 80.5845L78.058 80.92ZM74.554 86.824L75.2776 87.5143L75.2826 87.5089L74.554 86.824ZM47.434 91H46.434V92H47.434V91ZM47.434 88.936L47.1915 87.9659L46.434 88.1552V88.936H47.434ZM51.466 87.928L51.7085 88.8981L52.466 88.7088V87.928H51.466ZM51.466 59.512H52.466V58.7312L51.7085 58.5419L51.466 59.512ZM47.434 58.504H46.434V59.2848L47.1915 59.4741L47.434 58.504ZM56.266 89.12H63.706V87.12H56.266V89.12ZM63.706 89.12C65.528 89.12 67.1396 88.8507 68.5101 88.2736L67.7339 86.4304C66.6724 86.8773 65.34 87.12 63.706 87.12V89.12ZM68.5016 88.2772C69.9196 87.6954 71.091 86.7802 71.9996 85.5444L70.3883 84.3596C69.697 85.2998 68.8203 85.9846 67.7424 86.4268L68.5016 88.2772ZM71.9749 85.5767C72.9892 84.3088 73.6972 82.6864 74.137 80.7584L72.187 80.3136C71.7948 82.0336 71.1908 83.3552 70.4131 84.3273L71.9749 85.5767ZM74.1331 80.7745C74.6056 78.8509 74.834 76.5906 74.834 74.008H72.834C72.834 76.4813 72.6144 78.5731 72.1909 80.2975L74.1331 80.7745ZM74.834 74.008C74.834 68.9321 73.9454 64.9682 72.0041 62.2857L70.3839 63.4583C71.9626 65.6398 72.834 69.0999 72.834 74.008H74.834ZM72.0193 62.3073C71.0849 60.9417 69.8681 59.9217 68.38 59.2684L67.576 61.0996C68.7119 61.5983 69.6391 62.3703 70.3687 63.4367L72.0193 62.3073ZM68.38 59.2684C66.9098 58.6229 65.1813 58.32 63.226 58.32V60.32C64.9827 60.32 66.4222 60.5931 67.576 61.0996L68.38 59.2684ZM63.226 58.32H56.266V60.32H63.226V58.32ZM55.266 59.32V88.12H57.266V59.32H55.266ZM47.434 57.44H63.562V55.44H47.434V57.44ZM63.562 57.44C68.1365 57.44 71.5647 58.7238 73.9867 61.1749L75.4093 59.7691C72.5193 56.8442 68.5235 55.44 63.562 55.44V57.44ZM73.9835 61.1716C75.3761 62.5938 76.4556 64.3538 77.2123 66.4723L79.0957 65.7997C78.2524 63.4382 77.0279 61.4222 75.4125 59.7724L73.9835 61.1716ZM77.2123 66.4723C77.9709 68.5964 78.354 70.8819 78.354 73.336H80.354C80.354 70.6701 79.9371 68.1556 79.0957 65.7997L77.2123 66.4723ZM78.354 73.336C78.354 75.9149 77.9399 78.3262 77.1186 80.5772L78.9974 81.2628C79.9041 78.7778 80.354 76.1331 80.354 73.336H78.354ZM77.116 80.5845C76.3243 82.8073 75.2234 84.6518 73.8254 86.1391L75.2826 87.5089C76.8926 85.7962 78.1277 83.7047 79 81.2555L77.116 80.5845ZM73.8305 86.1337C71.4138 88.6669 67.8998 90 63.13 90V92C68.2801 92 72.3822 90.5491 75.2775 87.5143L73.8305 86.1337ZM63.13 90H47.434V92H63.13V90ZM48.434 91V88.936H46.434V91H48.434ZM47.6765 89.9061L51.7085 88.8981L51.2235 86.9579L47.1915 87.9659L47.6765 89.9061ZM52.466 87.928V59.512H50.466V87.928H52.466ZM51.7085 58.5419L47.6765 57.5339L47.1915 59.4741L51.2235 60.4821L51.7085 58.5419ZM48.434 58.504V56.44H46.434V58.504H48.434ZM105.016 78.328V79.328H105.921L106.011 78.4275L105.016 78.328ZM88.264 78.328V77.328H87.264V78.328H88.264ZM89.224 84.136L88.3009 84.5206L88.3039 84.5277L88.3069 84.5347L89.224 84.136ZM91.96 87.304L91.4845 88.1837L91.96 87.304ZM99.928 87.352L100.366 88.251L100.375 88.2465L100.384 88.2418L99.928 87.352ZM103.288 84.76L103.888 83.96L103.161 83.4149L102.549 84.0862L103.288 84.76ZM104.824 85.912L105.632 86.5012L106.213 85.704L105.424 85.112L104.824 85.912ZM100.744 89.848L101.306 90.6749L100.744 89.848ZM88.696 90.088L88.2034 90.9583L88.2097 90.9618L88.216 90.9653L88.696 90.088ZM84.808 85.912L83.9078 86.3476L83.9104 86.3529L84.808 85.912ZM83.752 82.6L82.7685 82.7812L83.752 82.6ZM86.488 68.296L85.7238 67.6509L85.719 67.6568L86.488 68.296ZM102.472 67.672L101.714 68.3238L101.719 68.3301L101.725 68.3364L102.472 67.672ZM105.112 76.984L104.118 76.8736L104.112 76.9286V76.984H105.112ZM88.312 75.976L87.3141 75.9106L87.2443 76.976H88.312V75.976ZM100.312 75.976V76.976H101.312V75.976H100.312ZM98.824 69.064L98.0314 69.6737L98.0362 69.68L98.0412 69.6862L98.824 69.064ZM105.016 77.328H88.264V79.328H105.016V77.328ZM87.264 78.328C87.264 80.7465 87.5941 82.8241 88.3009 84.5206L90.1471 83.7514C89.5739 82.3759 89.264 80.5815 89.264 78.328H87.264ZM88.3069 84.5347C89.0183 86.171 90.0676 87.4179 91.4845 88.1837L92.4355 86.4243C91.4843 85.9101 90.7096 85.045 90.1411 83.7373L88.3069 84.5347ZM91.4845 88.1837C92.8179 88.9045 94.2618 89.264 95.8 89.264V87.264C94.5862 87.264 93.4701 86.9835 92.4355 86.4243L91.4845 88.1837ZM95.8 89.264C97.4429 89.264 98.9704 88.9309 100.366 88.251L99.49 86.453C98.3896 86.9891 97.1651 87.264 95.8 87.264V89.264ZM100.384 88.2418C101.744 87.5446 102.958 86.6056 104.027 85.4338L102.549 84.0862C101.634 85.0904 100.608 85.8794 99.4717 86.4622L100.384 88.2418ZM102.688 85.56L104.224 86.712L105.424 85.112L103.888 83.96L102.688 85.56ZM104.016 85.3228C102.965 86.7644 101.688 87.9965 100.182 89.0211L101.306 90.6749C103 89.5235 104.443 88.1316 105.632 86.5012L104.016 85.3228ZM100.182 89.0211C98.7915 89.9664 96.9403 90.48 94.552 90.48V92.48C97.2197 92.48 99.4964 91.9056 101.306 90.6749L100.182 89.0211ZM94.552 90.48C92.4876 90.48 90.705 90.0474 89.176 89.2107L88.216 90.9653C90.079 91.9846 92.2003 92.48 94.552 92.48V90.48ZM89.1886 89.2177C87.6755 88.3613 86.5169 87.1227 85.7056 85.4711L83.9104 86.3529C84.8911 88.3493 86.3245 89.8947 88.2034 90.9583L89.1886 89.2177ZM85.7082 85.4764C85.2716 84.5743 84.9452 83.5573 84.7355 82.4188L82.7685 82.7812C83.0068 84.0747 83.3844 85.2657 83.9078 86.3476L85.7082 85.4764ZM84.7355 82.4188C84.5236 81.2688 84.416 80.0339 84.416 78.712H82.416C82.416 80.1421 82.5324 81.4991 82.7685 82.7812L84.7355 82.4188ZM84.416 78.712C84.416 74.3735 85.4081 71.1597 87.257 68.9352L85.719 67.6568C83.4719 70.3602 82.416 74.0905 82.416 78.712H84.416ZM87.2521 68.9411C89.1214 66.7267 91.6448 65.6 94.936 65.6V63.6C91.1232 63.6 88.0146 64.9373 85.7239 67.6509L87.2521 68.9411ZM94.936 65.6C97.9751 65.6 100.183 66.5428 101.714 68.3238L103.23 67.0202C101.241 64.7052 98.4249 63.6 94.936 63.6V65.6ZM101.725 68.3364C103.307 70.1162 104.16 72.6511 104.16 76.072H106.16C106.16 72.3249 105.221 69.2598 103.219 67.0076L101.725 68.3364ZM104.16 76.072C104.16 76.3589 104.146 76.6258 104.118 76.8736L106.106 77.0944C106.142 76.7662 106.16 76.4251 106.16 76.072H104.16ZM104.112 76.984C104.112 77.1843 104.085 77.5869 104.021 78.2285L106.011 78.4275C106.075 77.7891 106.112 77.2957 106.112 76.984H104.112ZM94.648 66.192C92.4307 66.192 90.6306 67.0595 89.373 68.803C88.1583 70.4869 87.5115 72.901 87.3141 75.9106L89.3099 76.0414C89.4965 73.195 90.0976 71.2171 90.995 69.973C91.8494 68.7885 93.0253 68.192 94.648 68.192V66.192ZM88.312 76.976H100.312V74.976H88.312V76.976ZM101.312 75.976V74.392H99.312V75.976H101.312ZM101.312 74.392C101.312 71.9597 100.79 69.9304 99.6068 68.4418L98.0412 69.6862C98.8419 70.6936 99.312 72.2163 99.312 74.392H101.312ZM99.6166 68.4543C98.4358 66.9192 96.7268 66.192 94.648 66.192V68.192C96.2172 68.192 97.2922 68.7128 98.0314 69.6737L99.6166 68.4543ZM132.277 83.704L131.327 83.3927L132.277 83.704ZM129.733 88.36L128.98 87.7029L128.976 87.7073L129.733 88.36ZM117.637 90.376L117.123 91.2335L117.131 91.2383L117.139 91.2429L117.637 90.376ZM114.229 86.152L115.129 85.7161L114.005 83.395L113.271 85.8673L114.229 86.152ZM112.789 91V92H113.536L113.748 91.2847L112.789 91ZM110.533 91H109.533V92H110.533V91ZM110.533 56.44H111.533V55.6568L110.773 55.4691L110.533 56.44ZM106.837 55.528H105.837V56.3112L106.598 56.4989L106.837 55.528ZM106.837 53.56V52.56H105.837V53.56H106.837ZM115.189 53.56H116.189V52.56H115.189V53.56ZM115.189 67.864H114.189V70.7445L115.974 68.4836L115.189 67.864ZM126.805 65.32L126.462 66.2591L126.469 66.2617L126.805 65.32ZM130.069 67.624L129.284 68.2429L129.289 68.2495L129.295 68.2561L130.069 67.624ZM132.373 72.088L133.329 71.7927V71.7927L132.373 72.088ZM115.621 82.936L116.602 82.7399L115.621 82.936ZM116.869 86.44L116.015 86.959L116.021 86.9691L116.027 86.9791L116.869 86.44ZM118.741 88.312L118.221 89.1662L118.229 89.1711L118.238 89.1758L118.741 88.312ZM124.501 88.408L124.934 89.3095L124.941 89.306L124.949 89.3024L124.501 88.408ZM126.517 86.728L127.326 87.3162L127.333 87.3068L127.34 87.2972L126.517 86.728ZM127.765 83.272L128.751 83.4433L127.765 83.272ZM127.717 73.144L126.737 73.3401L127.717 73.144ZM126.469 69.64L127.324 69.121L127.321 69.1159L126.469 69.64ZM124.549 67.768L124.029 68.6222L124.051 68.6353L124.073 68.6473L124.549 67.768ZM118.741 67.672L119.144 68.5873L119.152 68.5837L119.16 68.58L118.741 67.672ZM116.869 69.304L116.015 68.7841L116.008 68.7959L116.001 68.8079L116.869 69.304ZM115.621 72.808L114.645 72.5911L114.643 72.5993L114.642 72.6076L115.621 72.808ZM132.189 77.8C132.189 79.7811 131.9 81.6435 131.327 83.3927L133.228 84.0153C133.871 82.0525 134.189 79.9789 134.189 77.8H132.189ZM131.327 83.3927C130.753 85.1439 129.965 86.5723 128.98 87.7029L130.487 89.0171C131.677 87.6517 132.585 85.9761 133.228 84.0153L131.327 83.3927ZM128.976 87.7073C127.416 89.5182 125.145 90.48 122.005 90.48V92.48C125.585 92.48 128.467 91.3618 130.491 89.0127L128.976 87.7073ZM122.005 90.48C120.529 90.48 119.249 90.1489 118.136 89.5091L117.139 91.2429C118.586 92.0751 120.217 92.48 122.005 92.48V90.48ZM118.152 89.5185C117.105 88.8902 116.078 87.6745 115.129 85.7161L113.329 86.5879C114.365 88.7255 115.61 90.3258 117.123 91.2335L118.152 89.5185ZM113.271 85.8673L111.831 90.7153L113.748 91.2847L115.188 86.4367L113.271 85.8673ZM112.789 90H110.533V92H112.789V90ZM111.533 91V56.44H109.533V91H111.533ZM110.773 55.4691L107.077 54.5571L106.598 56.4989L110.294 57.4109L110.773 55.4691ZM107.837 55.528V53.56H105.837V55.528H107.837ZM106.837 54.56H115.189V52.56H106.837V54.56ZM114.189 53.56V67.864H116.189V53.56H114.189ZM115.974 68.4836C116.85 67.3749 117.789 66.649 118.781 66.2467L118.03 64.3933C116.654 64.951 115.449 65.9211 114.404 67.2444L115.974 68.4836ZM118.781 66.2467C119.829 65.8219 121.027 65.6 122.389 65.6V63.6C120.808 63.6 119.35 63.8581 118.03 64.3933L118.781 66.2467ZM122.389 65.6C123.923 65.6 125.277 65.8255 126.462 66.2591L127.149 64.3809C125.71 63.8545 124.119 63.6 122.389 63.6V65.6ZM126.469 66.2617C127.647 66.6826 128.576 67.3438 129.284 68.2429L130.855 67.0051C129.899 65.7922 128.651 64.9174 127.142 64.3783L126.469 66.2617ZM129.295 68.2561C130.192 69.3568 130.905 70.7251 131.418 72.3833L133.329 71.7927C132.753 69.9309 131.93 68.3232 130.844 66.9919L129.295 68.2561ZM131.418 72.3833C131.929 74.0376 132.189 75.8411 132.189 77.8H134.189C134.189 75.6629 133.905 73.6584 133.329 71.7927L131.418 72.3833ZM114.189 77.848C114.189 79.8458 114.336 81.6105 114.641 83.1321L116.602 82.7399C116.33 81.3815 116.189 79.7542 116.189 77.848H114.189ZM114.641 83.1321C114.943 84.644 115.391 85.9324 116.015 86.959L117.724 85.921C117.259 85.1556 116.876 84.108 116.602 82.7399L114.641 83.1321ZM116.027 86.9791C116.613 87.894 117.343 88.6312 118.221 89.1662L119.261 87.4578C118.668 87.0968 118.15 86.586 117.712 85.9009L116.027 86.9791ZM118.238 89.1758C119.201 89.7378 120.365 89.984 121.669 89.984V87.984C120.606 87.984 119.818 87.7822 119.245 87.4482L118.238 89.1758ZM121.669 89.984C122.874 89.984 123.972 89.7713 124.934 89.3095L124.069 87.5065C123.431 87.8127 122.641 87.984 121.669 87.984V89.984ZM124.949 89.3024C125.914 88.8198 126.713 88.1586 127.326 87.3162L125.709 86.1398C125.297 86.7054 124.753 87.1642 124.054 87.5136L124.949 89.3024ZM127.34 87.2972C128.028 86.303 128.481 84.9958 128.751 83.4433L126.78 83.1007C126.538 84.4922 126.159 85.489 125.695 86.1588L127.34 87.2972ZM128.751 83.4433C129.019 81.9014 129.149 80.1461 129.149 78.184H127.149C127.149 80.0619 127.024 81.6986 126.78 83.1007L128.751 83.4433ZM129.149 78.184C129.149 76.217 129.002 74.4686 128.698 72.9479L126.737 73.3401C127.009 74.6994 127.149 76.311 127.149 78.184H129.149ZM128.698 72.9479C128.396 71.436 127.947 70.1476 127.324 69.121L125.615 70.159C126.079 70.9244 126.463 71.972 126.737 73.3401L128.698 72.9479ZM127.321 69.1159C126.728 68.1527 125.965 67.3977 125.026 66.8887L124.073 68.6473C124.669 68.9703 125.186 69.4633 125.618 70.1641L127.321 69.1159ZM125.069 66.9138C124.125 66.339 122.949 66.096 121.621 66.096V68.096C122.726 68.096 123.502 68.301 124.029 68.6222L125.069 66.9138ZM121.621 66.096C120.415 66.096 119.308 66.3091 118.322 66.764L119.16 68.58C119.839 68.2669 120.651 68.096 121.621 68.096V66.096ZM118.339 66.7567C117.354 67.1899 116.571 67.8705 116.015 68.7841L117.724 69.8239C118.063 69.2655 118.529 68.8581 119.144 68.5873L118.339 66.7567ZM116.001 68.8079C115.423 69.8195 114.978 71.0914 114.645 72.5911L116.598 73.0249C116.904 71.6446 117.292 70.5805 117.738 69.8001L116.001 68.8079ZM114.642 72.6076C114.336 74.1002 114.189 75.8509 114.189 77.848H116.189C116.189 75.9411 116.33 74.3318 116.601 73.0084L114.642 72.6076ZM140.081 67.96H141.081V67.1768L140.321 66.9891L140.081 67.96ZM136.385 67.048H135.385V67.8312L136.146 68.0189L136.385 67.048ZM136.385 65.08V64.08H135.385V65.08H136.385ZM144.737 65.08H145.737V64.08H144.737V65.08ZM144.737 88.12H143.737V88.9032L144.498 89.0909L144.737 88.12ZM148.433 89.032H149.433V88.2488L148.673 88.0611L148.433 89.032ZM148.433 91V92H149.433V91H148.433ZM136.385 91H135.385V92H136.385V91ZM136.385 89.032L136.146 88.0611L135.385 88.2488V89.032H136.385ZM140.081 88.12L140.321 89.0909L141.081 88.9032V88.12H140.081ZM144.593 55.144L145.301 54.4369V54.4369L144.593 55.144ZM144.593 59.512L145.301 60.2191V60.2191L144.593 59.512ZM140.177 59.56L139.449 60.2454L139.47 60.2674L139.492 60.2882L140.177 59.56ZM140.321 66.9891L136.625 66.0771L136.146 68.0189L139.842 68.9309L140.321 66.9891ZM137.385 67.048V65.08H135.385V67.048H137.385ZM136.385 66.08H144.737V64.08H136.385V66.08ZM143.737 65.08V88.12H145.737V65.08H143.737ZM144.498 89.0909L148.194 90.0029L148.673 88.0611L144.977 87.1491L144.498 89.0909ZM147.433 89.032V91H149.433V89.032H147.433ZM148.433 90H136.385V92H148.433V90ZM137.385 91V89.032H135.385V91H137.385ZM136.625 90.0029L140.321 89.0909L139.842 87.1491L136.146 88.0611L136.625 90.0029ZM141.081 88.12V67.96H139.081V88.12H141.081ZM140.409 57.352C140.409 56.6308 140.614 56.1699 140.933 55.8511L139.518 54.4369C138.749 55.2061 138.409 56.2172 138.409 57.352H140.409ZM140.933 55.8511C141.258 55.5256 141.708 55.328 142.385 55.328V53.328C141.271 53.328 140.281 53.6744 139.518 54.4369L140.933 55.8511ZM142.385 55.328C143.107 55.328 143.568 55.5323 143.886 55.8511L145.301 54.4369C144.531 53.6677 143.52 53.328 142.385 53.328V55.328ZM143.886 55.8511C144.205 56.1699 144.409 56.6308 144.409 57.352H146.409C146.409 56.2172 146.07 55.2061 145.301 54.4369L143.886 55.8511ZM144.409 57.352C144.409 58.03 144.212 58.4793 143.886 58.8049L145.301 60.2191C146.063 59.4567 146.409 58.466 146.409 57.352H144.409ZM143.886 58.8049C143.568 59.1237 143.107 59.328 142.385 59.328V61.328C143.52 61.328 144.531 60.9883 145.301 60.2191L143.886 58.8049ZM142.385 59.328C141.648 59.328 141.179 59.1294 140.863 58.8318L139.492 60.2882C140.264 61.0146 141.267 61.328 142.385 61.328V59.328ZM140.906 58.8746C140.608 58.5584 140.409 58.09 140.409 57.352H138.409C138.409 58.47 138.723 59.4736 139.449 60.2454L140.906 58.8746ZM171.547 80.104V81.104H172.547V80.104H171.547ZM169.099 80.104L168.112 80.2684L168.252 81.104H169.099V80.104ZM168.283 75.208L169.269 75.0436L169.13 74.208H168.283V75.208ZM160.267 75.208V74.208H159.267V75.208H160.267ZM160.267 87.784H159.267V88.6347L160.106 88.7711L160.267 87.784ZM165.883 88.696H166.883V87.8453L166.043 87.7089L165.883 88.696ZM165.883 91V92H166.883V91H165.883ZM150.955 91H149.955V92H150.955V91ZM150.955 88.936L150.707 87.9671L149.955 88.1592V88.936H150.955ZM155.467 87.784L155.714 88.7529L156.467 88.5608V87.784H155.467ZM155.467 59.512H156.467V58.7108L155.685 58.5361L155.467 59.512ZM150.955 58.504H149.955V59.3052L150.737 59.4799L150.955 58.504ZM150.955 56.44V55.44H149.955V56.44H150.955ZM177.979 56.44H178.979V55.44H177.979V56.44ZM177.979 66.712V67.712H178.979V66.712H177.979ZM175.387 66.712L174.407 66.9129L174.571 67.712H175.387V66.712ZM173.851 59.224L174.83 59.0231L174.666 58.224H173.851V59.224ZM160.267 59.224V58.224H159.267V59.224H160.267ZM160.267 72.328H159.267V73.328H160.267V72.328ZM168.283 72.328V73.328H169.13L169.269 72.4924L168.283 72.328ZM169.099 67.432V66.432H168.252L168.112 67.2676L169.099 67.432ZM171.547 67.432H172.547V66.432H171.547V67.432ZM171.547 79.104H169.099V81.104H171.547V79.104ZM170.085 79.9396L169.269 75.0436L167.296 75.3724L168.112 80.2684L170.085 79.9396ZM168.283 74.208H160.267V76.208H168.283V74.208ZM159.267 75.208V87.784H161.267V75.208H159.267ZM160.106 88.7711L165.722 89.6831L166.043 87.7089L160.427 86.7969L160.106 88.7711ZM164.883 88.696V91H166.883V88.696H164.883ZM165.883 90H150.955V92H165.883V90ZM151.955 91V88.936H149.955V91H151.955ZM151.202 89.9049L155.714 88.7529L155.219 86.8151L150.707 87.9671L151.202 89.9049ZM156.467 87.784V59.512H154.467V87.784H156.467ZM155.685 58.5361L151.173 57.5281L150.737 59.4799L155.249 60.4879L155.685 58.5361ZM151.955 58.504V56.44H149.955V58.504H151.955ZM150.955 57.44H177.979V55.44H150.955V57.44ZM176.979 56.44V66.712H178.979V56.44H176.979ZM177.979 65.712H175.387V67.712H177.979V65.712ZM176.366 66.5111L174.83 59.0231L172.871 59.4249L174.407 66.9129L176.366 66.5111ZM173.851 58.224H160.267V60.224H173.851V58.224ZM159.267 59.224V72.328H161.267V59.224H159.267ZM160.267 73.328H168.283V71.328H160.267V73.328ZM169.269 72.4924L170.085 67.5964L168.112 67.2676L167.296 72.1636L169.269 72.4924ZM169.099 68.432H171.547V66.432H169.099V68.432ZM170.547 67.432V80.104H172.547V67.432H170.547ZM183.124 79.48L183.648 80.3313L183.124 79.48ZM194.74 76.12L194.886 77.1092L195.8 76.974L195.737 76.0524L194.74 76.12ZM194.212 71.704L193.233 71.9115L194.212 71.704ZM193.348 69.16L192.467 69.6341L192.471 69.6419L193.348 69.16ZM191.476 67.336L191.014 68.2232L191.028 68.2306L191.043 68.2375L191.476 67.336ZM186.436 67.192L186.037 66.2749L186.029 66.2782L186.022 66.2816L186.436 67.192ZM184.996 68.488L184.091 68.0622L183.736 68.8169L184.414 69.3017L184.996 68.488ZM185.956 69.736L185.019 70.0871L185.029 70.1122L185.039 70.1368L185.956 69.736ZM185.476 73.096L186.134 73.8486L186.137 73.8458L185.476 73.096ZM181.636 73L180.906 73.6839L180.917 73.6957L180.929 73.7071L181.636 73ZM185.812 65.32L185.495 64.3713L185.489 64.3735L185.812 65.32ZM193.732 65.224L193.374 66.1581L193.391 66.1643L193.407 66.1699L193.732 65.224ZM196.564 66.952L197.271 66.2449V66.2449L196.564 66.952ZM199.828 87.736L198.874 88.0371L198.881 88.0596L198.889 88.0817L199.828 87.736ZM203.38 88.648H204.38V87.648H203.38V88.648ZM203.38 90.088L203.753 91.0156L204.38 90.7633V90.088H203.38ZM195.988 90.424L195.071 90.8227L195.081 90.8473L195.093 90.8712L195.988 90.424ZM195.508 86.248H196.508V85.248H195.508V86.248ZM195.316 86.248V85.248H194.753L194.461 85.7286L195.316 86.248ZM191.38 90.088L191.874 90.9573L191.38 90.088ZM181.348 89.848L180.661 90.575L181.348 89.848ZM190.9 88.024L191.323 88.9303L191.335 88.9242L190.9 88.024ZM193.396 86.056L194.174 86.6843L194.176 86.6807L193.396 86.056ZM194.5 83.8L193.538 83.5253L193.535 83.5371L193.532 83.549L194.5 83.8ZM194.836 79.096L193.837 79.1547L193.838 79.1584L194.836 79.096ZM194.692 77.56L195.683 77.4278L195.542 76.3727L194.498 76.579L194.692 77.56ZM188.596 79.24L188.96 80.1712L188.969 80.1678L188.977 80.1643L188.596 79.24ZM185.476 81.352L186.272 81.9571L186.277 81.9496L186.283 81.942L185.476 81.352ZM185.476 87.592L184.692 88.2127L184.706 88.2308L184.721 88.2482L185.476 87.592ZM180.62 85.384C180.62 83.2744 181.573 81.6109 183.648 80.3313L182.599 78.6287C180.003 80.2291 178.62 82.5016 178.62 85.384H180.62ZM183.648 80.3313C185.803 79.003 189.505 77.9052 194.886 77.1092L194.593 75.1308C189.158 75.9348 185.116 77.077 182.599 78.6287L183.648 80.3313ZM195.737 76.0524C195.608 74.1467 195.428 72.6204 195.19 71.4965L193.233 71.9115C193.443 72.8996 193.615 74.3173 193.742 76.1876L195.737 76.0524ZM195.19 71.4965C194.954 70.3858 194.64 69.4345 194.224 68.6781L192.471 69.6419C192.759 70.1655 193.021 70.9102 193.233 71.9115L195.19 71.4965ZM194.228 68.6859C193.687 67.6805 192.912 66.9161 191.908 66.4345L191.043 68.2375C191.639 68.5239 192.113 68.9755 192.467 69.6341L194.228 68.6859ZM191.937 66.4488C190.99 65.9565 189.967 65.712 188.884 65.712V67.712C189.656 67.712 190.361 67.8835 191.014 68.2232L191.937 66.4488ZM188.884 65.712C187.866 65.712 186.913 65.8942 186.037 66.2749L186.834 68.1091C187.431 67.8498 188.109 67.712 188.884 67.712V65.712ZM186.022 66.2816C185.165 66.6711 184.474 67.2482 184.091 68.0622L185.9 68.9138C186.029 68.6398 186.298 68.3529 186.849 68.1024L186.022 66.2816ZM184.414 69.3017C184.702 69.5071 184.898 69.7625 185.019 70.0871L186.892 69.3849C186.63 68.6855 186.185 68.1089 185.577 67.6743L184.414 69.3017ZM185.039 70.1368C185.221 70.5527 185.292 70.8956 185.292 71.176H187.292C187.292 70.5604 187.138 69.9433 186.872 69.3352L185.039 70.1368ZM185.292 71.176C185.292 71.7221 185.119 72.0768 184.814 72.3462L186.137 73.8458C186.92 73.1552 187.292 72.2299 187.292 71.176H185.292ZM184.817 72.3434C184.511 72.6112 184.115 72.768 183.556 72.768V74.768C184.532 74.768 185.416 74.4768 186.134 73.8486L184.817 72.3434ZM183.556 72.768C183.035 72.768 182.655 72.6051 182.343 72.2929L180.929 73.7071C181.64 74.4189 182.54 74.768 183.556 74.768V72.768ZM182.365 72.3161C182.109 72.0427 181.916 71.598 181.916 70.84H179.916C179.916 71.938 180.202 72.9332 180.906 73.6839L182.365 72.3161ZM181.916 70.84C181.916 69.7541 182.279 68.8746 183.015 68.1391L181.601 66.7249C180.48 67.8454 179.916 69.2379 179.916 70.84H181.916ZM183.015 68.1391C183.821 67.3329 184.852 66.7038 186.134 66.2665L185.489 64.3735C183.956 64.8962 182.65 65.6751 181.601 66.7249L183.015 68.1391ZM186.128 66.2687C187.471 65.8208 188.805 65.6 190.132 65.6V63.6C188.578 63.6 187.032 63.8592 185.495 64.3713L186.128 66.2687ZM190.132 65.6C191.337 65.6 192.414 65.7908 193.374 66.1581L194.089 64.2899C192.873 63.8252 191.55 63.6 190.132 63.6V65.6ZM193.407 66.1699C194.396 66.5091 195.206 67.0083 195.857 67.6591L197.271 66.2449C196.386 65.3597 195.307 64.7069 194.056 64.2781L193.407 66.1699ZM195.857 67.6591C197.55 69.3526 198.54 72.5271 198.54 77.512H200.54C200.54 72.3849 199.545 68.5194 197.271 66.2449L195.857 67.6591ZM198.54 77.512V84.472H200.54V77.512H198.54ZM198.54 84.472C198.54 86.0362 198.63 87.2658 198.874 88.0371L200.781 87.4349C200.641 86.9902 200.54 86.0438 200.54 84.472H198.54ZM198.889 88.0817C199.062 88.5519 199.355 88.968 199.796 89.2565C200.229 89.5405 200.725 89.648 201.22 89.648V87.648C201.01 87.648 200.922 87.6035 200.892 87.5835C200.868 87.568 200.817 87.5281 200.766 87.3903L198.889 88.0817ZM201.22 89.648H203.38V87.648H201.22V89.648ZM202.38 88.648V90.088H204.38V88.648H202.38ZM203.006 89.1604C200.73 90.077 199.085 90.48 198.004 90.48V92.48C199.482 92.48 201.421 91.955 203.753 91.0156L203.006 89.1604ZM198.004 90.48C197.273 90.48 197.018 90.2482 196.882 89.9768L195.093 90.8712C195.661 92.0078 196.751 92.48 198.004 92.48V90.48ZM196.905 90.0253C196.803 89.791 196.697 89.3732 196.621 88.7138C196.547 88.0686 196.508 87.2495 196.508 86.248H194.508C194.508 87.2945 194.548 88.1954 194.634 88.9422C194.718 89.6748 194.852 90.321 195.071 90.8227L196.905 90.0253ZM195.508 85.248H195.316V87.248H195.508V85.248ZM194.461 85.7286C193.556 87.2178 192.367 88.3763 190.885 89.2187L191.874 90.9573C193.656 89.9437 195.091 88.5422 196.17 86.7674L194.461 85.7286ZM190.885 89.2187C189.405 90.0605 187.815 90.48 186.1 90.48V92.48C188.16 92.48 190.09 91.9715 191.874 90.9573L190.885 89.2187ZM186.1 90.48C184.267 90.48 182.954 89.9896 182.034 89.121L180.661 90.575C182.045 91.8824 183.901 92.48 186.1 92.48V90.48ZM182.034 89.121C181.12 88.2578 180.62 87.0539 180.62 85.384H178.62C178.62 87.4901 179.271 89.2622 180.661 90.575L182.034 89.121ZM188.116 89.696C189.182 89.696 190.254 89.4288 191.323 88.9302L190.477 87.1178C189.625 87.5152 188.841 87.696 188.116 87.696V89.696ZM191.335 88.9242C192.456 88.3819 193.406 87.6346 194.174 86.6843L192.618 85.4277C192.041 86.1414 191.327 86.7061 190.464 87.1238L191.335 88.9242ZM194.176 86.6807C194.784 85.9212 195.211 85.0391 195.468 84.051L193.532 83.549C193.34 84.2889 193.031 84.9108 192.615 85.4313L194.176 86.6807ZM195.461 84.0747C195.748 83.0691 195.884 81.9331 195.884 80.68H193.884C193.884 81.7949 193.763 82.7389 193.538 83.5253L195.461 84.0747ZM195.884 80.68C195.884 80.1164 195.867 79.5676 195.834 79.0336L193.838 79.1584C193.868 79.6484 193.884 80.1556 193.884 80.68H195.884ZM195.834 79.0373C195.801 78.4717 195.75 77.935 195.683 77.4278L193.7 77.6922C193.761 78.145 193.807 78.6323 193.837 79.1547L195.834 79.0373ZM194.498 76.579C191.878 77.0965 189.773 77.6717 188.214 78.3157L188.977 80.1643C190.362 79.5923 192.322 79.0475 194.885 78.541L194.498 76.579ZM188.231 78.3088C186.67 78.9198 185.433 79.715 184.668 80.762L186.283 81.942C186.734 81.325 187.578 80.7122 188.96 80.1712L188.231 78.3088ZM184.679 80.7469C183.913 81.7551 183.564 82.9886 183.564 84.376H185.564C185.564 83.3314 185.822 82.5489 186.272 81.9571L184.679 80.7469ZM183.564 84.376C183.564 85.8879 183.897 87.2088 184.692 88.2127L186.26 86.9713C185.838 86.4392 185.564 85.6161 185.564 84.376H183.564ZM184.721 88.2482C185.58 89.2362 186.754 89.696 188.116 89.696V87.696C187.237 87.696 186.651 87.4198 186.23 86.9358L184.721 88.2482ZM222.153 65.56L221.723 66.4629L221.736 66.469L221.749 66.4747L222.153 65.56ZM225.321 68.152L224.485 68.7012L224.491 68.7094L224.496 68.7175L225.321 68.152ZM225.705 74.824L224.924 74.1993L224.914 74.2115L224.905 74.224L225.705 74.824ZM221.337 75.016L220.63 75.7231L220.64 75.7338L220.652 75.7442L221.337 75.016ZM221.193 70.888L220.404 70.2741L220.393 70.2881L220.382 70.3025L221.193 70.888ZM222.969 69.688L223.26 70.6447L224.409 70.2951L223.857 69.2286L222.969 69.688ZM220.905 67.672L220.471 68.5731L220.484 68.579L220.905 67.672ZM211.881 69.64L211.063 69.0645L211.061 69.0676L211.881 69.64ZM210.393 81.688L209.406 81.8524L209.409 81.8683L209.412 81.8841L210.393 81.688ZM211.353 84.568L210.466 85.0294L210.469 85.0365L210.473 85.0435L211.353 84.568ZM213.897 87.304L213.379 88.1592L213.897 87.304ZM221.865 87.304L222.295 88.2069L221.865 87.304ZM225.321 84.568L225.946 83.7871L225.17 83.1665L224.544 83.9382L225.321 84.568ZM226.761 85.72L227.597 86.2684L228.096 85.5075L227.386 84.9391L226.761 85.72ZM222.345 90.088L222.832 90.9614L222.838 90.9578L222.845 90.9542L222.345 90.088ZM210.633 90.136L210.139 91.0053L210.149 91.011L210.159 91.0165L210.633 90.136ZM206.793 86.104L207.677 85.6376L207.674 85.6307L206.793 86.104ZM206.553 71.08L205.658 70.6327L205.653 70.6441L206.553 71.08ZM210.873 66.328L211.39 67.1843L211.4 67.1776L210.873 66.328ZM217.353 65.6C219.096 65.6 220.542 65.9006 221.723 66.4629L222.583 64.6571C221.076 63.9394 219.322 63.6 217.353 63.6V65.6ZM221.749 66.4747C222.971 67.0147 223.867 67.7612 224.485 68.7012L226.157 67.6028C225.302 66.3028 224.087 65.3213 222.557 64.6453L221.749 66.4747ZM224.496 68.7175C225.138 69.6533 225.473 70.7633 225.473 72.088H227.473C227.473 70.4047 227.04 68.8907 226.146 67.5865L224.496 68.7175ZM225.473 72.088C225.473 73.1431 225.243 73.8005 224.924 74.1993L226.486 75.4487C227.191 74.5675 227.473 73.4009 227.473 72.088H225.473ZM224.905 74.224C224.659 74.5518 224.258 74.784 223.497 74.784V76.784C224.72 76.784 225.791 76.3762 226.505 75.424L224.905 74.224ZM223.497 74.784C222.802 74.784 222.345 74.5915 222.022 74.2878L220.652 75.7442C221.417 76.4645 222.4 76.784 223.497 76.784V74.784ZM222.044 74.3089C221.755 74.02 221.569 73.6057 221.569 72.952H219.569C219.569 74.0263 219.895 74.988 220.63 75.7231L222.044 74.3089ZM221.569 72.952C221.569 72.3346 221.726 71.858 222.004 71.4735L220.382 70.3025C219.828 71.07 219.569 71.9694 219.569 72.952H221.569ZM221.982 71.5019C222.296 71.098 222.71 70.812 223.26 70.6447L222.678 68.7313C221.756 69.012 220.985 69.526 220.404 70.2741L221.982 71.5019ZM223.857 69.2286C223.282 68.1159 222.435 67.2799 221.326 66.765L220.484 68.579C221.167 68.8961 221.696 69.4041 222.081 70.1474L223.857 69.2286ZM221.339 66.771C220.299 66.2704 219.051 66.048 217.641 66.048V68.048C218.855 68.048 219.783 68.2416 220.471 68.573L221.339 66.771ZM217.641 66.048C214.78 66.048 212.512 67.0054 211.063 69.0645L212.699 70.2155C213.682 68.8186 215.254 68.048 217.641 68.048V66.048ZM211.061 69.0676C209.701 71.0159 209.105 73.9227 209.105 77.608H211.105C211.105 74.0613 211.693 71.656 212.701 70.2124L211.061 69.0676ZM209.105 77.608C209.105 79.2137 209.203 80.6313 209.406 81.8524L211.379 81.5236C211.199 80.4407 211.105 79.1383 211.105 77.608H209.105ZM209.412 81.8841C209.65 83.0731 209.996 84.127 210.466 85.0294L212.24 84.1066C211.877 83.409 211.584 82.5429 211.373 81.4919L209.412 81.8841ZM210.473 85.0435C211.19 86.3694 212.157 87.4188 213.379 88.1592L214.415 86.4488C213.525 85.9092 212.796 85.1346 212.233 84.0925L210.473 85.0435ZM213.379 88.1592C214.615 88.9087 216.049 89.264 217.641 89.264V87.264C216.353 87.264 215.29 86.9793 214.415 86.4488L213.379 88.1592ZM217.641 89.264C219.263 89.264 220.818 88.9101 222.295 88.2069L221.435 86.4011C220.224 86.9779 218.962 87.264 217.641 87.264V89.264ZM222.295 88.2069C223.777 87.5012 225.046 86.4947 226.098 85.1978L224.544 83.9382C223.676 85.0093 222.641 85.8268 221.435 86.4011L222.295 88.2069ZM224.696 85.3489L226.136 86.5009L227.386 84.9391L225.946 83.7871L224.696 85.3489ZM225.925 85.1716C224.712 87.0206 223.348 88.355 221.845 89.2218L222.845 90.9542C224.67 89.901 226.25 88.3234 227.597 86.2684L225.925 85.1716ZM221.858 89.2146C220.367 90.0461 218.588 90.48 216.489 90.48V92.48C218.869 92.48 220.995 91.9859 222.832 90.9614L221.858 89.2146ZM216.489 90.48C214.384 90.48 212.6 90.0597 211.107 89.2555L210.159 91.0165C211.993 92.0043 214.114 92.48 216.489 92.48V90.48ZM211.127 89.2667C209.671 88.4388 208.522 87.2394 207.677 85.6376L205.908 86.5704C206.92 88.4886 208.331 89.9772 210.139 91.0053L211.127 89.2667ZM207.674 85.6307C206.617 83.6641 206.065 81.2432 206.065 78.328H204.065C204.065 81.4928 204.665 84.2559 205.912 86.5773L207.674 85.6307ZM206.065 78.328C206.065 75.6619 206.54 73.4011 207.453 71.5159L205.653 70.6441C204.582 72.8549 204.065 75.4261 204.065 78.328H206.065ZM207.447 71.5272C208.392 69.6386 209.705 68.2008 211.39 67.1842L210.356 65.4718C208.329 66.6952 206.762 68.4254 205.658 70.6328L207.447 71.5272ZM211.4 67.1776C213.078 66.1361 215.051 65.6 217.353 65.6V63.6C214.727 63.6 212.379 64.2159 210.346 65.4784L211.4 67.1776ZM233.295 67.96H234.295V67.1768L233.535 66.9891L233.295 67.96ZM229.599 67.048H228.599V67.8312L229.36 68.0189L229.599 67.048ZM229.599 65.08V64.08H228.599V65.08H229.599ZM237.951 65.08H238.951V64.08H237.951V65.08ZM237.951 88.12H236.951V88.9032L237.712 89.0909L237.951 88.12ZM241.647 89.032H242.647V88.2488L241.887 88.0611L241.647 89.032ZM241.647 91V92H242.647V91H241.647ZM229.599 91H228.599V92H229.599V91ZM229.599 89.032L229.36 88.0611L228.599 88.2488V89.032H229.599ZM233.295 88.12L233.535 89.0909L234.295 88.9032V88.12H233.295ZM237.807 55.144L238.514 54.4369V54.4369L237.807 55.144ZM237.807 59.512L238.514 60.2191V60.2191L237.807 59.512ZM233.391 59.56L232.663 60.2454L232.684 60.2674L232.706 60.2882L233.391 59.56ZM233.535 66.9891L229.839 66.0771L229.36 68.0189L233.056 68.9309L233.535 66.9891ZM230.599 67.048V65.08H228.599V67.048H230.599ZM229.599 66.08H237.951V64.08H229.599V66.08ZM236.951 65.08V88.12H238.951V65.08H236.951ZM237.712 89.0909L241.408 90.0029L241.887 88.0611L238.191 87.1491L237.712 89.0909ZM240.647 89.032V91H242.647V89.032H240.647ZM241.647 90H229.599V92H241.647V90ZM230.599 91V89.032H228.599V91H230.599ZM229.839 90.0029L233.535 89.0909L233.056 87.1491L229.36 88.0611L229.839 90.0029ZM234.295 88.12V67.96H232.295V88.12H234.295ZM233.623 57.352C233.623 56.6308 233.828 56.1699 234.146 55.8511L232.732 54.4369C231.963 55.2061 231.623 56.2172 231.623 57.352H233.623ZM234.146 55.8511C234.472 55.5256 234.921 55.328 235.599 55.328V53.328C234.485 53.328 233.495 53.6744 232.732 54.4369L234.146 55.8511ZM235.599 55.328C236.32 55.328 236.781 55.5323 237.1 55.8511L238.514 54.4369C237.745 53.6677 236.734 53.328 235.599 53.328V55.328ZM237.1 55.8511C237.419 56.1699 237.623 56.6308 237.623 57.352H239.623C239.623 56.2172 239.284 55.2061 238.514 54.4369L237.1 55.8511ZM237.623 57.352C237.623 58.03 237.426 58.4793 237.1 58.8049L238.514 60.2191C239.277 59.4567 239.623 58.466 239.623 57.352H237.623ZM237.1 58.8049C236.781 59.1237 236.32 59.328 235.599 59.328V61.328C236.734 61.328 237.745 60.9883 238.514 60.2191L237.1 58.8049ZM235.599 59.328C234.861 59.328 234.393 59.1294 234.077 58.8318L232.706 60.2882C233.478 61.0146 234.481 61.328 235.599 61.328V59.328ZM234.119 58.8746C233.822 58.5584 233.623 58.09 233.623 57.352H231.623C231.623 58.47 231.937 59.4736 232.663 60.2454L234.119 58.8746ZM247.144 88.12L247.384 89.0909L248.144 88.9032V88.12H247.144ZM247.144 56.44H248.144V55.6568L247.384 55.4691L247.144 56.44ZM243.448 55.528H242.448V56.3112L243.209 56.4989L243.448 55.528ZM243.448 53.56V52.56H242.448V53.56H243.448ZM251.8 53.56H252.8V52.56H251.8V53.56ZM251.8 88.12H250.8V88.9032L251.561 89.0909L251.8 88.12ZM255.496 89.032H256.496V88.2488L255.736 88.0611L255.496 89.032ZM255.496 91V92H256.496V91H255.496ZM243.448 91H242.448V92H243.448V91ZM243.448 89.032L243.209 88.0611L242.448 88.2488V89.032H243.448ZM248.144 88.12V56.44H246.144V88.12H248.144ZM247.384 55.4691L243.688 54.5571L243.209 56.4989L246.905 57.4109L247.384 55.4691ZM244.448 55.528V53.56H242.448V55.528H244.448ZM243.448 54.56H251.8V52.56H243.448V54.56ZM250.8 53.56V88.12H252.8V53.56H250.8ZM251.561 89.0909L255.257 90.0029L255.736 88.0611L252.04 87.1491L251.561 89.0909ZM254.496 89.032V91H256.496V89.032H254.496ZM255.496 90H243.448V92H255.496V90ZM244.448 91V89.032H242.448V91H244.448ZM243.688 90.0029L247.384 89.0909L246.905 87.1491L243.209 88.0611L243.688 90.0029Z" fill="black"/>
</g>
<path fill-rule="evenodd" clip-rule="evenodd" d="M11.2592 11.2593V38L-1.14441e-05 26.7407V0H0H26.7407L38 11.2593L11.2592 11.2593Z" fill="url(#paint0_linear_1_162)"/>
<path fill-rule="evenodd" clip-rule="evenodd" d="M36.7408 36.7407L36.7408 10L48 21.2593V48H48H21.2593L10 36.7407L36.7408 36.7407Z" fill="black"/>
<defs>
<filter id="filter0_d_1_162" x="43.434" y="53.56" width="216.062" height="45.92" filterUnits="userSpaceOnUse" color-interpolation-filters="sRGB">
<feFlood flood-opacity="0" result="BackgroundImageFix"/>
<feColorMatrix in="SourceAlpha" type="matrix" values="0 0 0 0 0 0 0 0 0 0 0 0 0 0 0 0 0 0 127 0" result="hardAlpha"/>
<feOffset dy="4"/>
<feGaussianBlur stdDeviation="2"/>
<feComposite in2="hardAlpha" operator="out"/>
<feColorMatrix type="matrix" values="0 0 0 0 0 0 0 0 0 0 0 0 0 0 0 0 0 0 0.25 0"/>
<feBlend mode="normal" in2="BackgroundImageFix" result="effect1_dropShadow_1_162"/>
<feBlend mode="normal" in="SourceGraphic" in2="effect1_dropShadow_1_162" result="shape"/>
</filter>
<linearGradient id="paint0_linear_1_162" x1="26.7407" y1="-2.94654e-07" x2="11.2593" y2="38" gradientUnits="userSpaceOnUse">
<stop stop-color="#FF00D6"/>
<stop offset="1" stop-color="#FF4D00"/>
</linearGradient>
</defs>
</svg>
